<?xml version="1.0" encoding="UTF-8" standalone="no"?>
<svg width="163px" height="27px" viewBox="0 0 163 27" version="1.1" xmlns="http://www.w3.org/2000/svg" xmlns:xlink="http://www.w3.org/1999/xlink">
    <!-- Generator: sketchtool 3.7.2 (28276) - http://www.bohemiancoding.com/sketch -->
    <title>B3ACAA2D-EC6D-4724-874D-F223E0AAD77F</title>
    <desc>Created with sketchtool.</desc>
    <defs>
        <polygon id="path-1" points="0.556350694 26.96625 118.854167 26.96625 118.854167 0.17325 59.7052587 0.17325 0.556350694 0.17325"></polygon>
    </defs>
    <g id="Program" stroke="none" stroke-width="1" fill="none" fill-rule="evenodd">
        <g id="program-curriculum" transform="translate(-30.000000, -27.000000)">
            <g id="nav">
                <g id="main-nav">
                    <g id="logo-color" transform="translate(30.000000, 27.000000)">
                        <path d="M24.8427847,12.5409375 C24.6203576,10.8714375 23.6321701,9.7419375 22.0508438,9.7419375 C20.4938542,9.7419375 19.4813299,10.84725 19.1841944,12.5409375 L24.8427847,12.5409375 L24.8427847,12.5409375 Z M15.5031111,13.64625 L15.5031111,13.5973125 C15.5031111,9.8398125 18.1960069,6.7460625 22.0508438,6.7460625 C26.4733507,6.7460625 28.4995313,10.15875 28.4995313,13.8920625 C28.4995313,14.1868125 28.4751944,14.5305 28.4502917,14.8741875 L19.234,14.8741875 C19.6041458,16.5684375 20.7904236,17.4526875 22.4707951,17.4526875 C23.7306493,17.4526875 24.6446944,17.0600625 25.6826875,16.102125 L27.83225,17.9926875 C26.5972986,19.515375 24.8178819,20.4485625 22.4215556,20.4485625 C18.4433368,20.4485625 15.5031111,17.67375 15.5031111,13.64625 L15.5031111,13.64625 Z" id="Fill-1" fill="#29A2A5"></path>
                        <polyline id="Fill-2" fill="#29A2A5" points="28.8034583 6.9913125 32.7811111 6.9913125 35.7462396 15.6645 38.7357049 6.9913125 42.6403472 6.9913125 37.4266111 20.25225 34.0166285 20.25225 28.8034583 6.9913125"></polyline>
                        <path d="M6.89523958,16.988625 C5.01111806,16.988625 3.48355903,15.469875 3.48355903,13.5973125 C3.48355903,11.7241875 5.01111806,10.206 6.89523958,10.206 C8.77709722,10.206 10.3029583,11.7196875 10.3074861,13.588875 L10.3074861,13.5973125 L10.3080521,13.5973125 C10.3080521,15.469875 8.77992708,16.988625 6.89523958,16.988625 L6.89523958,16.988625 Z M10.3074861,0.17325 L10.3074861,7.646625 C9.30062153,7.075125 8.13811458,6.7438125 6.89523958,6.7438125 C3.08737847,6.7438125 0,9.81225 0,13.5973125 C0,17.3818125 3.08737847,20.45025 6.89523958,20.45025 C10.7036667,20.45025 13.7910451,17.3818125 13.7910451,13.5973125 L13.7910451,0.17325 L10.3074861,0.17325 L10.3074861,0.17325 Z" id="Fill-3" fill="#29A2A5"></path>
                        <path d="M90.1452257,2.577375 L93.9010174,2.577375 L93.9010174,6.9913125 L97.0138646,6.9913125 L97.0138646,10.1840625 L93.9010174,10.1840625 L93.9010174,15.807375 C93.9010174,16.666875 94.2717292,17.08425 95.1116319,17.08425 C95.80325,17.08425 96.4207257,16.912125 96.964625,16.6179375 L96.964625,19.6138125 C96.1739618,20.0806875 95.2599167,20.374875 93.9994965,20.374875 C91.7022153,20.374875 90.1452257,19.4664375 90.1452257,16.4210625 L90.1452257,2.577375" id="Fill-4" fill="#7A8586"></path>
                        <path d="M98.5487813,13.64625 L98.5487813,13.5973125 C98.5487813,9.8398125 101.439767,6.7460625 105.491562,6.7460625 C107.9875,6.7460625 109.54449,7.5808125 110.779441,8.9555625 L108.481594,11.412 C107.641691,10.52775 106.801222,9.963 105.467226,9.963 C103.58933,9.963 102.255333,11.6083125 102.255333,13.5478125 L102.255333,13.5973125 C102.255333,15.6110625 103.564993,17.231625 105.61551,17.231625 C106.875931,17.231625 107.740736,16.691625 108.654781,15.8315625 L110.854149,18.0421875 C109.568826,19.4416875 108.086545,20.4485625 105.442323,20.4485625 C101.464104,20.4485625 98.5487813,17.4031875 98.5487813,13.64625" id="Fill-5" fill="#7A8586"></path>
                        <path d="M120.783566,15.512625 L120.783566,14.8494375 C120.141188,14.55525 119.300719,14.358375 118.386674,14.358375 C116.78101,14.358375 115.792257,14.9968125 115.792257,16.1758125 L115.792257,16.22475 C115.792257,17.231625 116.63216,17.821125 117.84334,17.821125 C119.597854,17.821125 120.783566,16.8631875 120.783566,15.512625 L120.783566,15.512625 Z M112.160413,16.372125 L112.160413,16.322625 C112.160413,13.4505 114.359781,12.124125 117.497531,12.124125 C118.831528,12.124125 119.794813,12.344625 120.734326,12.664125 L120.734326,12.4425 C120.734326,10.895625 119.770476,10.036125 117.89258,10.036125 C116.459538,10.036125 115.447014,10.30725 114.235833,10.7488125 L113.296885,7.9003125 C114.75483,7.2613125 116.187872,6.8445 118.435913,6.8445 C120.486997,6.8445 121.969278,7.3845 122.908226,8.317125 C123.896979,9.29925 124.341833,10.7488125 124.341833,12.51675 L124.341833,20.1538125 L120.709424,20.1538125 L120.709424,18.7295625 C119.794813,19.7364375 118.534958,20.399625 116.706868,20.399625 C114.210931,20.399625 112.160413,18.9748125 112.160413,16.372125 L112.160413,16.372125 Z" id="Fill-6" fill="#7A8586"></path>
                        <path d="M126.781174,6.9913125 L130.496215,6.9913125 L130.496215,8.8576875 C131.361021,7.752375 132.496927,6.7460625 134.399726,6.7460625 C136.129337,6.7460625 137.438997,7.507125 138.131181,8.8329375 C139.29199,7.482375 140.675792,6.7460625 142.479545,6.7460625 C145.272052,6.7460625 146.951858,8.4155625 146.951858,11.5835625 L146.951858,20.1538125 L143.196632,20.1538125 L143.196632,12.8115 C143.196632,11.0435625 142.405403,10.1345625 140.996698,10.1345625 C139.588559,10.1345625 138.724319,11.0435625 138.724319,12.8115 L138.724319,20.1538125 L134.968528,20.1538125 L134.968528,12.8115 C134.968528,11.0435625 134.177299,10.1345625 132.76916,10.1345625 C131.361021,10.1345625 130.496215,11.0435625 130.496215,12.8115 L130.496215,20.1538125 L126.781174,20.1538125 L126.781174,6.9913125" id="Fill-7" fill="#7A8586"></path>
                        <g id="Group-11" transform="translate(44.145833, 0.000000)">
                            <mask id="mask-2" fill="white">
                                <use xlink:href="#path-1"></use>
                            </mask>
                            <g id="Clip-9"></g>
                            <path d="M7.45159028,16.988625 C5.56746875,16.988625 4.03934375,15.469875 4.03934375,13.5973125 L4.03990972,13.5973125 L4.03990972,13.588875 C4.0444375,11.7196875 5.56973264,10.206 7.45159028,10.206 C9.33627778,10.206 10.8638368,11.7241875 10.8638368,13.5973125 C10.8638368,15.469875 9.33627778,16.988625 7.45159028,16.988625 L7.45159028,16.988625 Z M7.45159028,6.7438125 C6.20928125,6.7438125 5.04677431,7.075125 4.03990972,7.646625 L4.03990972,0.17325 L0.556350694,0.17325 L0.556350694,13.5973125 C0.556350694,17.3818125 3.64316319,20.45025 7.45159028,20.45025 C11.2600174,20.45025 14.3473958,17.3818125 14.3473958,13.5973125 C14.3473958,9.81225 11.2600174,6.7438125 7.45159028,6.7438125 L7.45159028,6.7438125 Z" id="Fill-8" fill="#7A8586" mask="url(#mask-2)"></path>
                            <path d="M111.958927,16.900875 C110.111028,16.900875 108.613465,15.4119375 108.613465,13.5759375 C108.613465,11.739375 110.111028,10.251 111.958927,10.251 C113.80626,10.251 115.303823,11.739375 115.303823,13.5759375 C115.303823,15.4119375 113.80626,16.900875 111.958927,16.900875 L111.958927,16.900875 Z M111.958927,6.7224375 C108.1505,6.7224375 105.063122,9.790875 105.063122,13.5759375 L105.063122,27 L108.608372,27 L108.608372,19.56375 C109.600521,20.1133125 110.742087,20.428875 111.958927,20.428875 C115.766788,20.428875 118.854167,17.361 118.854167,13.5759375 C118.854167,9.790875 115.766788,6.7224375 111.958927,6.7224375 L111.958927,6.7224375 Z" id="Fill-10" fill="#7A8586" mask="url(#mask-2)"></path>
                        </g>
                        <path d="M81.5582951,6.7438125 C79.6985104,6.7438125 78.0141771,7.479 76.7741319,8.6686875 L76.7707361,8.6653125 L69.0876632,15.935625 L69.0859653,15.9339375 C68.4645278,16.5819375 67.5895347,16.988625 66.6171944,16.988625 C64.7325069,16.988625 63.2049479,15.469875 63.2049479,13.5973125 C63.2049479,11.7241875 64.7325069,10.206 66.6171944,10.206 C68.480375,10.206 69.9920868,11.6904375 70.0260451,13.5343125 L72.9108056,10.8163125 C71.8382882,8.418375 69.4278125,6.7438125 66.6171944,6.7438125 C62.8087674,6.7438125 59.7219549,9.81225 59.7219549,13.5973125 C59.7219549,17.3818125 62.8087674,20.45025 66.6171944,20.45025 C68.4356632,20.45025 70.0843403,19.7454375 71.3164618,18.6024375 L71.3209896,18.6080625 L79.1104653,11.2370625 C79.7307708,10.602 80.5972743,10.206 81.5582951,10.206 C83.4429826,10.206 84.9705417,11.7241875 84.9705417,13.5973125 C84.9705417,15.469875 83.4429826,16.988625 81.5582951,16.988625 C79.6968125,16.988625 78.1862326,15.5064375 78.1494444,13.6648125 L75.2675139,16.3828125 C76.3411632,18.7779375 78.749941,20.45025 81.5582951,20.45025 C85.3661562,20.45025 88.4535347,17.3818125 88.4535347,13.5973125 C88.4535347,9.81225 85.3661562,6.7438125 81.5582951,6.7438125" id="Fill-12" fill="#7A8586"></path>
                    </g>
                </g>
            </g>
        </g>
    </g>
</svg>